<svg width="56" height="53" viewBox="0 0 56 53" fill="none" xmlns="http://www.w3.org/2000/svg">
<path fill-rule="evenodd" clip-rule="evenodd" d="M35.291 16.6067C34.6083 14.946 35.3961 13.0203 37.0591 12.349C38.6871 11.6777 40.5777 12.4727 41.2604 14.1333C41.9431 15.794 41.1554 17.6843 39.5274 18.3733C37.8643 19.0623 35.9737 18.2673 35.3085 16.6067H35.291ZM26.7834 24.115C25.1204 24.804 24.3501 26.7297 25.0153 28.3727C25.698 30.0333 27.5711 30.8283 29.2341 30.1393C30.8621 29.468 31.6499 27.56 30.9672 25.8993C30.2845 24.2387 28.3939 23.426 26.7659 24.115H26.7834ZM48.1751 23.5673C49.8031 22.896 50.5908 20.988 49.9081 19.3273C49.2254 17.6667 47.3348 16.854 45.7068 17.543C44.0438 18.232 43.2735 20.1577 43.9387 21.8007C44.6214 23.4613 46.4945 24.2563 48.1576 23.5497L48.1751 23.5673ZM49.6805 30.4043C50.3632 32.065 52.2363 32.86 53.8993 32.1533C55.5274 31.482 56.3151 29.574 55.6324 27.9133C54.9497 26.2527 53.0591 25.44 51.4311 26.129C49.7681 26.818 48.9978 28.7437 49.663 30.3867L49.6805 30.4043ZM26.2932 8.268C26.4158 8.427 26.5558 8.56833 26.7133 8.692L24.3676 15.8293V15.8647C24.2626 16.218 24.1926 16.6067 24.1926 16.9953C24.1926 18.921 25.6105 20.5287 27.4486 20.7937H27.5361C27.6937 20.8113 27.8512 20.829 28.0088 20.829C28.1663 20.829 28.3239 20.829 28.4814 20.7937H28.5689C30.407 20.511 31.8249 18.921 31.8249 16.9953C31.8249 16.6067 31.7724 16.218 31.6499 15.8647V15.8293L29.3042 8.692C29.4617 8.56833 29.6018 8.427 29.7243 8.268C29.8468 8.109 33.8031 10.4233 33.8031 10.4233V4.346L29.7243 5.65333C29.6193 5.49433 29.4792 5.353 29.3217 5.22933C29.1641 5.10567 30.9672 0 30.9672 0H25.0853L26.7309 5.21167C26.5908 5.33533 26.4508 5.47667 26.3282 5.63567C26.2057 5.79467 22.2495 4.346 22.2495 4.346V10.4233L26.3282 8.25033L26.2932 8.268ZM16.4376 18.3733C18.1007 19.0623 19.9912 18.2673 20.6565 16.6067C21.3392 14.946 20.5514 13.0203 18.8884 12.349C17.2604 11.6777 15.3698 12.4727 14.6871 14.1333C14.0044 15.794 14.7921 17.6843 16.4201 18.3733H16.4376ZM7.78993 23.585C9.45295 24.274 11.3435 23.479 12.0088 21.836C12.6915 20.1753 11.9037 18.2497 10.2407 17.5783C8.61269 16.907 6.7221 17.702 6.03939 19.3627C5.35667 21.0233 6.14442 22.9137 7.77243 23.6027L7.78993 23.585ZM2.06565 32.1887C3.72867 32.8777 5.61926 32.0827 6.28446 30.4397C6.96718 28.779 6.17943 26.8533 4.51641 26.182C2.8884 25.5107 0.997812 26.3057 0.315098 27.9663C-0.367615 29.627 0.420131 31.5173 2.04814 32.2063L2.06565 32.1887ZM51.6411 35.8633C52.0788 38.107 52.1488 39.1493 51.6586 40.598C50.9409 39.8913 50.2582 38.5663 49.7155 36.57L47.5974 43.7073C48.8928 42.8063 49.8906 42.2233 51.0284 42.2057C49.0153 46.6047 46.477 47.7353 44.849 47.4173C42.8534 47.0463 41.9256 45.2443 42.2407 43.725C42.6958 41.5697 44.9015 41.0043 45.9168 43.513C47.8775 39.4673 44.5514 38.213 42.4158 39.4143C45.7068 36.093 46.0744 33.1603 43.4311 29.5917C39.7374 32.4537 39.6849 35.2803 41.3479 39.2553C39.1948 36.7643 35.8162 38.107 37.0416 42.135C38.5996 39.697 40.6652 41.234 40.3326 43.5483C40.0525 45.5623 37.4267 47.1877 34.1357 46.905C29.4267 46.481 29.1466 43.195 29.0241 40.492C30.1794 40.28 32.2626 41.3577 34.0481 43.884L34.6958 36.3227C32.7702 38.3543 31.0022 38.743 29.0591 38.796C29.7068 36.7467 32.7002 33.4077 32.7002 33.4077H23.3348C23.3348 33.4077 26.3107 36.7643 26.9759 38.796C25.0328 38.7253 23.2648 38.3543 21.3392 36.3227L21.9869 43.884C23.7724 41.3753 25.8381 40.28 27.0109 40.492C26.8884 43.2127 26.6083 46.481 21.8993 46.905C18.6083 47.1877 15.9825 45.5623 15.7024 43.5483C15.3698 41.234 17.4354 39.697 18.9934 42.135C20.2013 38.107 16.8403 36.7643 14.6871 39.2553C16.3501 35.2803 16.3151 32.4537 12.6039 29.5917C9.94311 33.1603 10.3282 36.093 13.6193 39.4143C11.4836 38.213 8.14004 39.485 10.1182 43.513C11.151 41.0043 13.3392 41.5697 13.7943 43.725C14.1094 45.2443 13.1816 47.0463 11.186 47.4173C9.55799 47.7177 7.01969 46.587 5.00656 42.2057C6.14442 42.241 7.14223 42.8063 8.43764 43.7073L6.31948 36.57C5.77681 38.5663 5.09409 39.8913 4.37637 40.598C3.88621 39.1493 3.95624 38.107 4.37637 35.8633L0 37.4357C2.32823 40.6333 4.58643 45.1383 6.42451 53C12.954 52.0637 20.2713 51.5337 27.9912 51.5337C35.7112 51.5337 43.046 52.0637 49.5755 53C51.4311 45.1383 53.6893 40.6333 56 37.4357L51.6236 35.8633H51.6411Z" fill="white"/>
</svg>
