<svg width="133" height="61" viewBox="0 0 133 61" fill="none" xmlns="http://www.w3.org/2000/svg">
<path d="M7.81632 11.9366C7.81632 12.9246 7.93986 13.8751 8.18695 14.7879C8.43365 15.7007 8.8094 16.5061 9.3146 17.204C9.81941 17.9024 10.4635 18.4634 11.2477 18.8876C12.0318 19.3117 12.9663 19.5242 14.051 19.5242C15.1358 19.5242 15.9601 19.3577 16.653 19.0249C17.3455 18.692 17.8987 18.2758 18.3122 17.7761C18.7253 17.2768 19.0153 16.7374 19.1821 16.1575C19.3486 15.5775 19.4316 15.0405 19.4316 14.5463V14.3209H13.5195V10.761H23.9744V23.4224H19.8829V20.7159C19.5929 21.1672 19.2329 21.5779 18.8036 21.9485C18.374 22.3188 17.8908 22.6359 17.3533 22.8987C16.8163 23.1619 16.228 23.3689 15.5895 23.5192C14.9505 23.6695 14.271 23.7446 13.5518 23.7446C11.8654 23.7446 10.3675 23.4385 9.05728 22.8263C7.74707 22.2141 6.64342 21.3714 5.74673 20.2973C4.85004 19.2236 4.16818 17.9669 3.70075 16.5277C3.23371 15.0889 3 13.5372 3 11.8721C3 10.2071 3.26047 8.66949 3.78141 7.22517C4.30235 5.78084 5.04323 4.52419 6.00484 3.4556C6.96605 2.38701 8.12557 1.54426 9.48418 0.926555C10.8428 0.308852 12.3651 0 14.0514 0C15.1468 0 16.186 0.126295 17.1684 0.378491C18.1513 0.63108 19.048 0.990686 19.8589 1.4577C20.6694 1.92472 21.3863 2.48891 22.0095 3.14911C22.632 3.8093 23.1372 4.54268 23.5239 5.34805L19.432 7.65126C19.1849 7.15749 18.8949 6.69835 18.562 6.27382C18.2288 5.85009 17.8452 5.48458 17.4104 5.17848C16.9752 4.87238 16.4787 4.63081 15.9204 4.45376C15.3617 4.27671 14.7388 4.18779 14.0518 4.18779C12.9671 4.18779 12.0326 4.40025 11.2484 4.82438C10.4643 5.24851 9.8202 5.80956 9.31539 6.50792C8.81058 7.20589 8.43483 8.01402 8.18774 8.93231C7.94065 9.8506 7.8171 10.7988 7.8171 11.7753V11.9366H7.81632Z" fill="white"/>
<path d="M38.8524 0C40.5706 0 42.1118 0.308852 43.4759 0.926555C44.84 1.54426 45.9972 2.38701 46.9478 3.4556C47.898 4.52419 48.6231 5.78084 49.1224 7.22517C49.6217 8.66949 49.8712 10.2189 49.8712 11.8721C49.8712 13.5253 49.6217 15.0889 49.1224 16.5277C48.6231 17.9669 47.898 19.2236 46.9478 20.2973C45.9976 21.371 44.84 22.2141 43.4759 22.8263C42.1122 23.4385 40.5706 23.7446 38.8524 23.7446C37.1341 23.7446 35.5792 23.4385 34.221 22.8263C32.8624 22.2141 31.708 21.3714 30.7578 20.2973C29.8072 19.2236 29.0824 17.9669 28.5831 16.5277C28.0838 15.0889 27.834 13.5372 27.834 11.8721C27.834 10.2071 28.0838 8.66949 28.5831 7.22517C29.0824 5.78084 29.8072 4.52419 30.7578 3.4556C31.708 2.38701 32.8624 1.54426 34.221 0.926555C35.5796 0.308852 37.1231 0 38.8524 0ZM38.8524 19.5238C39.862 19.5238 40.7508 19.3333 41.5184 18.9517C42.2861 18.5708 42.9337 18.0417 43.4594 17.3653C43.9858 16.6886 44.3832 15.8888 44.6516 14.965C44.9199 14.0415 45.0545 13.032 45.0545 11.9366V11.8076C45.0545 10.7229 44.9199 9.71604 44.6516 8.78713C44.3832 7.85821 43.9858 7.0552 43.4594 6.37887C42.9333 5.70255 42.2861 5.17376 41.5184 4.79212C40.7508 4.41127 39.862 4.22045 38.8524 4.22045C37.8428 4.22045 36.9516 4.41127 36.178 4.79212C35.4049 5.17376 34.7581 5.70255 34.2371 6.37887C33.7162 7.0552 33.3215 7.85861 33.0532 8.78713C32.7849 9.71604 32.6503 10.7229 32.6503 11.8076V11.9366C32.6503 13.032 32.7849 14.0415 33.0532 14.965C33.3215 15.8888 33.7162 16.6882 34.2371 17.3653C34.7581 18.0417 35.4049 18.5708 36.178 18.9517C36.9516 19.3333 37.8428 19.5238 38.8524 19.5238Z" fill="white"/>
<path d="M58.1083 23.424L51.584 0.324219H56.8197L61.2823 17.6892H61.4432L65.8091 0.324219H70.9799L64.4556 23.424H58.1087H58.1083Z" fill="white"/>
<path d="M97.4392 19.5219C98.1156 19.5219 98.7467 19.4227 99.3318 19.224C99.9172 19.0254 100.422 18.7248 100.846 18.3219C101.27 17.919 101.606 17.4095 101.853 16.7914C102.1 16.1741 102.223 15.4466 102.223 14.609V0.288086H106.815V15.3014C106.815 16.5903 106.581 17.7557 106.115 18.7972C105.648 19.839 104.999 20.725 104.167 21.4553C103.335 22.1859 102.345 22.7493 101.198 23.1467C100.049 23.5436 98.7939 23.7427 97.4314 23.7427C96.0688 23.7427 94.8129 23.5436 93.6652 23.1467C92.5167 22.7493 91.5244 22.1855 90.6871 21.4553C89.8498 20.725 89.1982 19.8394 88.7312 18.7972C88.2646 17.7557 88.0312 16.59 88.0312 15.3014V0.288086H92.6548V14.609C92.6548 15.4466 92.7783 16.1741 93.025 16.7914C93.2721 17.4095 93.6077 17.919 94.0319 18.3219C94.456 18.7248 94.9608 19.0254 95.5463 19.224C96.1318 19.4227 96.7629 19.5219 97.4392 19.5219Z" fill="white"/>
<path d="M110.961 0.324219H115.633V10.3275L123.881 0.324219H129.632L121.609 9.50597L130.148 23.424H124.719L118.613 13.0658L115.633 16.4002V23.424H110.961V0.324219Z" fill="white"/>
<path d="M78.3121 15.7762C80.466 15.7762 82.212 14.0302 82.212 11.8764C82.212 9.72256 80.466 7.97656 78.3121 7.97656C76.1582 7.97656 74.4121 9.72256 74.4121 11.8764C74.4121 14.0302 76.1582 15.7762 78.3121 15.7762Z" fill="#00FFE0"/>
<path d="M119.074 38.451H121.772V40.3295C122.328 39.5695 123.013 39.0129 123.827 38.6597C124.651 38.3065 125.566 38.1299 126.572 38.1299C127.482 38.1299 128.279 38.2797 128.964 38.5794C129.649 38.8791 130.222 39.2859 130.682 39.7997C131.143 40.3134 131.485 40.9075 131.71 41.5818C131.945 42.2561 132.063 42.9679 132.063 43.7172V54.8597H129.366V44.5681C129.366 43.851 129.275 43.2409 129.093 42.7378C128.922 42.224 128.681 41.8119 128.37 41.5015C128.071 41.1804 127.712 40.9503 127.295 40.8111C126.888 40.6613 126.449 40.5864 125.978 40.5864C125.464 40.5864 124.956 40.6827 124.453 40.8754C123.96 41.0573 123.511 41.3356 123.104 41.7103C122.708 42.0849 122.387 42.5558 122.141 43.1231C121.895 43.6904 121.772 44.3594 121.772 45.1301V54.8597H119.074V38.451Z" fill="white"/>
<path d="M114.787 54.8624H112.09V38.4537H114.787V54.8624ZM111.592 33.7174C111.592 33.4605 111.64 33.2196 111.736 32.9949C111.843 32.7701 111.977 32.5721 112.138 32.4008C112.309 32.2295 112.507 32.0958 112.732 31.9994C112.967 31.8924 113.213 31.8389 113.47 31.8389C113.727 31.8389 113.968 31.8924 114.193 31.9994C114.418 32.0958 114.61 32.2295 114.771 32.4008C114.942 32.5721 115.076 32.7701 115.172 32.9949C115.279 33.2196 115.333 33.4605 115.333 33.7174C115.333 33.9742 115.279 34.2204 115.172 34.4559C115.076 34.6807 114.942 34.8787 114.771 35.05C114.61 35.2105 114.418 35.3443 114.193 35.4513C113.968 35.5477 113.727 35.5958 113.47 35.5958C113.213 35.5958 112.967 35.5477 112.732 35.4513C112.507 35.3443 112.309 35.2105 112.138 35.05C111.977 34.8787 111.843 34.6807 111.736 34.4559C111.64 34.2204 111.592 33.9742 111.592 33.7174Z" fill="white"/>
<path d="M93.832 45.7562C93.832 44.6752 93.9872 43.669 94.2976 42.7378C94.608 41.8066 95.0522 41.0038 95.6302 40.3295C96.2082 39.6444 96.904 39.1093 97.7175 38.7239C98.5416 38.3279 99.4621 38.1299 100.479 38.1299C101.378 38.1299 102.234 38.3065 103.048 38.6597C103.861 39.0022 104.552 39.5588 105.119 40.3295V38.451H107.816V54.8597C107.816 55.8765 107.608 56.7275 107.19 57.4125C106.783 58.1082 106.248 58.6648 105.585 59.0823C104.921 59.4997 104.166 59.7994 103.321 59.9814C102.486 60.1633 101.635 60.2543 100.768 60.2543C100.286 60.2543 99.7833 60.2276 99.2588 60.174C98.745 60.1205 98.2259 60.0402 97.7014 59.9332C97.1769 59.8262 96.6578 59.687 96.144 59.5158C95.6409 59.3552 95.1593 59.1625 94.699 58.9378L95.6784 56.6739C95.9995 56.8238 96.3367 56.9683 96.6899 57.1074C97.0431 57.2573 97.4231 57.3911 97.8298 57.5088C98.2473 57.6266 98.6915 57.7229 99.1624 57.7978C99.6334 57.8728 100.147 57.9102 100.704 57.9102C101.389 57.9102 102.004 57.8406 102.55 57.7015C103.107 57.5623 103.572 57.3429 103.947 57.0432C104.322 56.7542 104.611 56.3796 104.814 55.9193C105.017 55.4698 105.119 54.9293 105.119 54.2977V51.183C104.552 51.9536 103.861 52.5156 103.048 52.8688C102.234 53.2113 101.378 53.3826 100.479 53.3826C99.4621 53.3826 98.5416 53.1899 97.7175 52.8046C96.904 52.4085 96.2082 51.868 95.6302 51.183C95.0522 50.4979 94.608 49.6952 94.2976 48.7747C93.9872 47.8434 93.832 46.8373 93.832 45.7562ZM105.183 45.692C105.183 44.9535 105.103 44.2738 104.942 43.653C104.782 43.0214 104.53 42.4756 104.188 42.0153C103.845 41.5443 103.406 41.1804 102.871 40.9235C102.347 40.6559 101.715 40.5221 100.977 40.5221C100.227 40.5221 99.5799 40.6559 99.034 40.9235C98.4881 41.1911 98.0332 41.5604 97.6693 42.0314C97.3161 42.4916 97.0538 43.0375 96.8826 43.669C96.7113 44.3005 96.6257 44.9749 96.6257 45.692V45.8205C96.6257 46.5376 96.7113 47.2119 96.8826 47.8434C97.0538 48.4642 97.3161 49.0101 97.6693 49.4811C98.0332 49.9414 98.4881 50.3053 99.034 50.5729C99.5799 50.8405 100.227 50.9743 100.977 50.9743C101.715 50.9743 102.347 50.8458 102.871 50.5889C103.406 50.3213 103.845 49.9574 104.188 49.4972C104.53 49.0369 104.782 48.491 104.942 47.8595C105.103 47.228 105.183 46.5483 105.183 45.8205V45.692Z" fill="white"/>
<path d="M84.2399 38.1299C85.3744 38.1299 86.4073 38.344 87.3386 38.7721C88.2698 39.1895 89.0619 39.7782 89.7148 40.5382C90.3784 41.2875 90.8922 42.1866 91.2561 43.2355C91.62 44.2738 91.802 45.4191 91.802 46.6714C91.802 47.9023 91.62 49.0422 91.2561 50.0912C90.8922 51.1295 90.3784 52.0286 89.7148 52.7885C89.0619 53.5378 88.2698 54.1265 87.3386 54.5546C86.4073 54.9721 85.3744 55.1808 84.2399 55.1808C83.1053 55.1808 82.0724 54.9721 81.1412 54.5546C80.2206 54.1265 79.4286 53.5378 78.7649 52.7885C78.1013 52.0286 77.5875 51.1295 77.2236 50.0912C76.8597 49.0422 76.6777 47.9023 76.6777 46.6714C76.6777 45.4191 76.8597 44.2738 77.2236 43.2355C77.5875 42.1866 78.1013 41.2875 78.7649 40.5382C79.4286 39.7782 80.2206 39.1895 81.1412 38.7721C82.0724 38.344 83.1053 38.1299 84.2399 38.1299ZM84.2399 52.8206C85.0212 52.8206 85.7063 52.6601 86.295 52.339C86.8944 52.0072 87.3921 51.563 87.7881 51.0064C88.1949 50.4498 88.4999 49.8076 88.7033 49.0797C88.9066 48.3412 89.0083 47.5705 89.0083 46.7677V46.5751C89.0083 45.7509 88.9066 44.9695 88.7033 44.231C88.4999 43.4924 88.1949 42.8502 87.7881 42.3043C87.3921 41.7477 86.8944 41.3089 86.295 40.9878C85.7063 40.6559 85.0212 40.49 84.2399 40.49C83.4585 40.49 82.7681 40.6559 82.1687 40.9878C81.58 41.3089 81.0823 41.7477 80.6755 42.3043C80.2795 42.8502 79.9798 43.4924 79.7764 44.231C79.5731 44.9695 79.4714 45.7509 79.4714 46.5751V46.7677C79.4714 47.5705 79.5731 48.3412 79.7764 49.0797C79.9798 49.8076 80.2795 50.4498 80.6755 51.0064C81.0823 51.563 81.58 52.0072 82.1687 52.339C82.7681 52.6601 83.4585 52.8206 84.2399 52.8206Z" fill="white"/>
<path d="M63.6406 31.8389H66.4664V52.3256H75.6662V54.8624H63.6406V31.8389Z" fill="white"/>
<path d="M40.9527 47.4902C41.0062 48.2609 41.1614 48.9727 41.4183 49.6256C41.6752 50.2785 42.0231 50.8458 42.4619 51.3275C42.9115 51.7984 43.436 52.1677 44.0354 52.4353C44.6455 52.6922 45.3198 52.8206 46.0584 52.8206C46.9682 52.8206 47.7656 52.6708 48.4506 52.3711C49.1464 52.0607 49.7832 51.6753 50.3612 51.2151L51.742 53.1578C51.0034 53.7465 50.1471 54.2335 49.1731 54.6188C48.2098 54.9935 47.1287 55.1808 45.9299 55.1808C44.7418 55.1808 43.6661 54.9721 42.7028 54.5546C41.7394 54.1265 40.9153 53.5378 40.2302 52.7885C39.5559 52.0286 39.0368 51.1295 38.6728 50.0912C38.3089 49.0422 38.127 47.9023 38.127 46.6714C38.127 45.4191 38.3036 44.2738 38.6568 43.2355C39.0207 42.1866 39.5291 41.2875 40.1821 40.5382C40.835 39.7782 41.6163 39.1895 42.5262 38.7721C43.436 38.344 44.4475 38.1299 45.5606 38.1299C46.6417 38.1299 47.6157 38.344 48.4827 38.7721C49.3497 39.1895 50.0883 39.7782 50.6984 40.5382C51.3085 41.2875 51.7741 42.1866 52.0952 43.2355C52.427 44.2738 52.5929 45.4084 52.5929 46.6393V47.4902H40.9527ZM45.4643 40.49C44.7793 40.49 44.1692 40.6238 43.634 40.8914C43.0988 41.159 42.6385 41.5176 42.2532 41.9671C41.8786 42.4167 41.5789 42.9358 41.3541 43.5245C41.14 44.1025 41.0169 44.7019 40.9848 45.3227H49.6708C49.6494 44.6912 49.537 44.0865 49.3337 43.5085C49.141 42.9198 48.8627 42.406 48.4988 41.9671C48.1456 41.5176 47.7121 41.159 47.1983 40.8914C46.6952 40.6238 46.1172 40.49 45.4643 40.49Z" fill="white"/>
<path d="M22.8145 38.451H25.5118V40.3295C26.0684 39.5695 26.7534 39.0129 27.5669 38.6597C28.3911 38.3065 29.3062 38.1299 30.3124 38.1299C31.2222 38.1299 32.0196 38.2797 32.7046 38.5794C33.3897 38.8791 33.9623 39.2859 34.4226 39.7997C34.8828 40.3134 35.2253 40.9075 35.4501 41.5818C35.6856 42.2561 35.8033 42.9679 35.8033 43.7172V54.8597H33.106V44.5681C33.106 43.851 33.015 43.2409 32.8331 42.7378C32.6618 42.224 32.421 41.8119 32.1106 41.5015C31.8109 41.1804 31.4523 40.9503 31.0349 40.8111C30.6281 40.6613 30.1893 40.5864 29.7183 40.5864C29.2045 40.5864 28.6961 40.6827 28.193 40.8754C27.7007 41.0573 27.2511 41.3356 26.8444 41.7103C26.4483 42.0849 26.1272 42.5558 25.881 43.1231C25.6349 43.6904 25.5118 44.3594 25.5118 45.1301V54.8597H22.8145V38.451Z" fill="white"/>
<path d="M0 43.3837C0 41.7353 0.230128 40.194 0.690385 38.7597C1.16135 37.3147 1.83032 36.0624 2.69732 35.0027C3.56431 33.9323 4.61862 33.0921 5.86025 32.482C7.10187 31.8612 8.49869 31.5508 10.0507 31.5508C11.6028 31.5508 12.9996 31.8612 14.2412 32.482C15.4828 33.0921 16.5371 33.9323 17.4041 35.0027C18.2818 36.0624 18.9508 37.3147 19.4111 38.7597C19.882 40.194 20.1175 41.7353 20.1175 43.3837C20.1175 45.0427 19.882 46.5894 19.4111 48.0237C18.9508 49.458 18.2818 50.705 17.4041 51.7646C16.5371 52.8243 15.4828 53.6592 14.2412 54.2693C12.9996 54.8794 11.6028 55.1844 10.0507 55.1844C8.49869 55.1844 7.10187 54.8794 5.86025 54.2693C4.61862 53.6592 3.56431 52.8243 2.69732 51.7646C1.83032 50.705 1.16135 49.458 0.690385 48.0237C0.230128 46.5894 0 45.0427 0 43.3837ZM17.1312 43.1589C17.1312 41.9708 16.992 40.8255 16.7137 39.723C16.4461 38.6205 16.0234 37.6465 15.4454 36.8009C14.8674 35.9553 14.1288 35.281 13.2297 34.7779C12.3413 34.2749 11.2816 34.0233 10.0507 34.0233C8.8198 34.0233 7.76014 34.2749 6.87174 34.7779C5.98334 35.281 5.25014 35.9553 4.67214 36.8009C4.09414 37.6465 3.666 38.6205 3.3877 39.723C3.12011 40.8255 2.98632 41.9708 2.98632 43.1589V43.5924C2.98632 44.7805 3.12011 45.9258 3.3877 47.0283C3.666 48.1307 4.09414 49.1048 4.67214 49.9503C5.25014 50.7852 5.98334 51.4596 6.87174 51.9733C7.76014 52.4764 8.8198 52.7279 10.0507 52.7279C11.2816 52.7279 12.3413 52.4764 13.2297 51.9733C14.1288 51.4596 14.8674 50.7852 15.4454 49.9503C16.0234 49.1048 16.4461 48.1307 16.7137 47.0283C16.992 45.9258 17.1312 44.7805 17.1312 43.5924V43.1589Z" fill="white"/>
</svg>
