<svg width="40" height="40" viewBox="0 0 40 40" fill="none" xmlns="http://www.w3.org/2000/svg">
<rect width="40" height="40" rx="20" fill="#1D70B8"/>
<path d="M20.163 21.2128C16.5216 21.2128 13.5566 18.2478 13.5566 14.6064C13.5566 10.965 16.5216 8 20.163 8C23.8045 8 26.7695 10.965 26.7695 14.6064C26.7695 18.2478 23.8045 21.2128 20.163 21.2128ZM20.163 10.8354C18.0851 10.8354 16.392 12.5285 16.392 14.6064C16.392 16.6843 18.0851 18.3775 20.163 18.3775C22.241 18.3775 23.9341 16.6843 23.9341 14.6064C23.9341 12.5285 22.241 10.8354 20.163 10.8354Z" fill="white"/>
<path d="M14.0951 31.7032H11.2598V24.0518H28.8755V26.8871H14.0951V31.7032Z" fill="white"/>
</svg>
