<svg width="107" height="115" viewBox="0 0 107 115" fill="none" xmlns="http://www.w3.org/2000/svg">
<path fill-rule="evenodd" clip-rule="evenodd" d="M64.1762 24.6267C63.1765 22.214 64.3299 19.4163 66.7651 18.441C69.149 17.4657 71.9173 18.6207 72.917 21.0333C73.9167 23.446 72.7632 26.1923 70.3793 27.1933C67.9442 28.1943 65.1758 27.0393 64.2018 24.6267H64.1762ZM51.7185 35.535C49.2834 36.536 48.1555 39.3337 49.1296 41.7207C50.1293 44.1333 52.872 45.2883 55.3071 44.2873C57.691 43.312 58.8445 40.54 57.8448 38.1273C56.8451 35.7147 54.0767 34.534 51.6929 35.535H51.7185ZM83.0421 34.7393C85.4259 33.764 86.5794 30.992 85.5797 28.5793C84.58 26.1667 81.8117 24.986 79.4278 25.987C76.9927 26.988 75.8648 29.7857 76.8389 32.1727C77.8385 34.5853 80.5813 35.7403 83.0164 34.7137L83.0421 34.7393ZM85.2465 44.6723C86.2462 47.085 88.9889 48.24 91.424 47.2133C93.8079 46.238 94.9614 43.466 93.9617 41.0533C92.962 38.6407 90.1937 37.46 87.8098 38.461C85.3746 39.462 84.2468 42.2597 85.2209 44.6467L85.2465 44.6723ZM51.0008 12.512C51.1802 12.743 51.3853 12.9483 51.616 13.128L48.1812 23.4973V23.5487C48.0274 24.062 47.9248 24.6267 47.9248 25.1913C47.9248 27.989 50.0011 30.3247 52.6926 30.7097H52.8207C53.0514 30.7353 53.2821 30.761 53.5128 30.761C53.7435 30.761 53.9742 30.761 54.2049 30.7097H54.3331C57.0245 30.299 59.1008 27.989 59.1008 25.1913C59.1008 24.6267 59.0239 24.062 58.8445 23.5487V23.4973L55.4097 13.128C55.6404 12.9483 55.8454 12.743 56.0249 12.512C56.2043 12.281 61.9973 15.6433 61.9973 15.6433V6.814L56.0249 8.71333C55.8711 8.48233 55.666 8.277 55.4353 8.09733C55.2046 7.91767 57.8448 0.5 57.8448 0.5H49.2321L51.6416 8.07167C51.4365 8.25133 51.2315 8.45667 51.052 8.68767C50.8726 8.91867 45.0796 6.814 45.0796 6.814V15.6433L51.052 12.4863L51.0008 12.512ZM36.5694 27.1933C39.0045 28.1943 41.7729 27.0393 42.747 24.6267C43.7466 22.214 42.5932 19.4163 40.158 18.441C37.7741 17.4657 35.0058 18.6207 34.0061 21.0333C33.0064 23.446 34.1599 26.1923 36.5438 27.1933H36.5694ZM23.9067 34.765C26.3418 35.766 29.1102 34.611 30.0842 32.224C31.0839 29.8113 29.9304 27.0137 27.4953 26.0383C25.1114 25.063 22.3431 26.218 21.3434 28.6307C20.3437 31.0433 21.4972 33.7897 23.8811 34.7907L23.9067 34.765ZM15.5247 47.2647C17.9598 48.2657 20.7282 47.1107 21.7023 44.7237C22.7019 42.311 21.5485 39.5133 19.1133 38.538C16.7294 37.5627 13.9611 38.7177 12.9614 41.1303C11.9617 43.543 13.1152 46.2893 15.4991 47.2903L15.5247 47.2647ZM88.1174 52.6033C88.7582 55.863 88.8607 57.3773 88.143 59.482C87.0921 58.4553 86.0924 56.5303 85.2978 53.63L82.1962 63.9993C84.093 62.6903 85.5541 61.8433 87.2202 61.8177C84.2724 68.2087 80.5556 69.8513 78.1718 69.3893C75.2496 68.8503 73.8911 66.2323 74.3525 64.025C75.0189 60.8937 78.2487 60.0723 79.7354 63.717C82.6063 57.8393 77.736 56.017 74.6088 57.7623C79.4278 52.937 79.9661 48.6763 76.0955 43.4917C70.6869 47.6497 70.61 51.7563 73.0452 57.5313C69.8923 53.9123 64.9451 55.863 66.7395 61.715C69.0208 58.173 72.0455 60.406 71.5585 63.7683C71.1483 66.6943 67.3034 69.0557 62.4844 68.645C55.5891 68.029 55.179 63.255 54.9995 59.328C56.6913 59.02 59.7416 60.5857 62.3562 64.256L63.3046 53.2707C60.485 56.2223 57.8961 56.787 55.0508 56.864C55.9992 53.8867 60.3825 49.0357 60.3825 49.0357H46.6688C46.6688 49.0357 51.0264 53.9123 52.0005 56.864C49.1552 56.7613 46.5663 56.2223 43.7466 53.2707L44.6951 64.256C47.3096 60.6113 50.3343 59.02 52.0517 59.328C51.8723 63.2807 51.4622 68.029 44.5669 68.645C39.7479 69.0557 35.9029 66.6943 35.4928 63.7683C35.0058 60.406 38.0305 58.173 40.3118 61.715C42.0805 55.863 37.159 53.9123 34.0061 57.5313C36.4412 51.7563 36.39 47.6497 30.9558 43.4917C27.0596 48.6763 27.6235 52.937 32.4425 57.7623C29.3153 56.017 24.4194 57.865 27.3159 63.717C28.8282 60.0723 32.0324 60.8937 32.6988 64.025C33.1602 66.2323 31.8017 68.8503 28.8795 69.3893C26.4956 69.8257 22.7788 68.183 19.831 61.8177C21.4972 61.869 22.9583 62.6903 24.8551 63.9993L21.7535 53.63C20.9589 56.5303 19.9592 58.4553 18.9083 59.482C18.1905 57.3773 18.2931 55.863 18.9083 52.6033L12.5 54.8877C15.9092 59.5333 19.2158 66.0783 21.9073 77.5C31.4684 76.1397 42.183 75.3697 53.4872 75.3697C64.7913 75.3697 75.5316 76.1397 85.0927 77.5C87.8098 66.0783 91.1164 59.5333 94.5 54.8877L88.0918 52.6033H88.1174Z" fill="white"/>
<path d="M13.387 113.463C12.2703 114.137 10.8973 114.473 9.26793 114.473C6.58595 114.473 4.38911 113.562 2.6774 111.74C0.892468 109.91 0 107.406 0 104.229C0 101.016 0.901621 98.4404 2.70486 96.5019C4.50811 94.5635 6.8926 93.5942 9.85833 93.5942C12.4305 93.5942 14.4946 94.2359 16.0507 95.5192C17.6159 96.7936 18.513 98.3865 18.7418 100.298H14.5815C14.2612 98.9429 13.4785 97.9962 12.2337 97.4577C11.538 97.1615 10.7645 97.0135 9.91326 97.0135C8.28393 97.0135 6.94294 97.6192 5.89029 98.8308C4.84679 100.033 4.32504 101.846 4.32504 104.269C4.32504 106.71 4.89255 108.438 6.02759 109.452C7.16262 110.466 8.45327 110.973 9.89952 110.973C11.3183 110.973 12.4808 110.574 13.387 109.775C14.2932 108.967 14.8516 107.913 15.0621 106.612H10.3801V103.3H18.8105V113.948H16.0095L15.5839 111.471C14.7692 112.413 14.0369 113.078 13.387 113.463Z" fill="white"/>
<path d="M31.813 114.5C28.9205 114.5 26.71 113.728 25.1813 112.185C23.1309 110.291 22.1057 107.563 22.1057 104C22.1057 100.365 23.1309 97.6372 25.1813 95.8154C26.71 94.2718 28.9205 93.5 31.813 93.5C34.7055 93.5 36.9161 94.2718 38.4448 95.8154C40.486 97.6372 41.5066 100.365 41.5066 104C41.5066 107.563 40.486 110.291 38.4448 112.185C36.9161 113.728 34.7055 114.5 31.813 114.5ZM35.8085 109.169C36.788 107.958 37.2777 106.235 37.2777 104C37.2777 101.774 36.7834 100.056 35.7948 98.8442C34.8154 97.6237 33.4881 97.0135 31.813 97.0135C30.1379 97.0135 28.8015 97.6192 27.8038 98.8308C26.8061 100.042 26.3072 101.765 26.3072 104C26.3072 106.235 26.8061 107.958 27.8038 109.169C28.8015 110.381 30.1379 110.987 31.813 110.987C33.4881 110.987 34.82 110.381 35.8085 109.169Z" fill="white"/>
<path d="M43.2504 94.1058H47.7676L52.1613 109.169L56.5962 94.1058H60.9899L54.0835 113.948H50.088L43.2504 94.1058Z" fill="white"/>
<path d="M60.5368 109.937H64.697V113.948H60.5368V109.937Z" fill="white"/>
<path d="M80.7203 106.302V94.1058H85.0178V106.302C85.0178 108.411 84.6837 110.053 84.0155 111.229C82.7706 113.383 80.3953 114.46 76.8895 114.46C73.3837 114.46 71.0038 113.383 69.7498 111.229C69.0816 110.053 68.7475 108.411 68.7475 106.302V94.1058H73.045V106.302C73.045 107.666 73.2098 108.662 73.5393 109.29C74.0519 110.403 75.1687 110.96 76.8895 110.96C78.6012 110.96 79.7134 110.403 80.226 109.29C80.5555 108.662 80.7203 107.666 80.7203 106.302Z" fill="white"/>
<path d="M107 113.948H101.563L95.3155 105.279L93.2972 107.312V113.948H89.1369V94.1058H93.2972V102.277L101.11 94.1058H106.574L98.2813 102.277L107 113.948Z" fill="white"/>
</svg>
