<svg width="1024" height="1024" viewBox="0 0 1024 1024" fill="none" xmlns="http://www.w3.org/2000/svg">
<path d="M155.207 296.392C155.207 302.383 155.956 308.147 157.454 313.683C158.95 319.218 161.229 324.103 164.293 328.335C167.354 332.57 171.26 335.973 176.015 338.545C180.77 341.117 186.437 342.405 193.015 342.405C199.593 342.405 204.592 341.396 208.794 339.378C212.993 337.359 216.348 334.835 218.855 331.805C221.361 328.777 223.119 325.506 224.131 321.989C225.14 318.472 225.644 315.215 225.644 312.218V310.851H189.792V289.262H253.192V366.046H228.38V349.633C226.622 352.369 224.439 354.86 221.836 357.108C219.23 359.353 216.3 361.276 213.041 362.87C209.784 364.466 206.217 365.721 202.344 366.633C198.47 367.544 194.349 368 189.987 368C179.761 368 170.678 366.144 162.732 362.431C154.787 358.719 148.094 353.608 142.657 347.094C137.219 340.583 133.084 332.962 130.249 324.234C127.417 315.508 126 306.098 126 296C126 285.903 127.58 276.578 130.739 267.819C133.898 259.06 138.39 251.44 144.222 244.959C150.051 238.479 157.082 233.368 165.321 229.622C173.56 225.876 182.791 224.003 193.018 224.003C199.66 224.003 205.962 224.769 211.919 226.298C217.88 227.83 223.317 230.011 228.235 232.843C233.15 235.675 237.497 239.097 241.277 243.101C245.051 247.104 248.115 251.552 250.46 256.436L225.646 270.403C224.148 267.409 222.389 264.625 220.371 262.05C218.35 259.48 216.023 257.264 213.387 255.407C210.748 253.551 207.737 252.086 204.351 251.012C200.963 249.939 197.186 249.4 193.02 249.4C186.442 249.4 180.775 250.688 176.02 253.26C171.265 255.832 167.359 259.235 164.297 263.47C161.236 267.702 158.958 272.603 157.459 278.172C155.961 283.741 155.212 289.491 155.212 295.413V296.392H155.207Z" fill="white"/>
<path d="M343.419 224C353.838 224 363.184 225.873 371.456 229.619C379.726 233.365 386.746 238.476 392.51 244.956C398.273 251.437 402.67 259.057 405.698 267.816C408.726 276.575 410.238 285.971 410.238 295.997C410.238 306.023 408.726 315.505 405.698 324.231C402.67 332.959 398.273 340.58 392.51 347.091C386.748 353.602 379.729 358.715 371.456 362.428C363.187 366.141 353.838 367.997 343.419 367.997C332.999 367.997 323.57 366.141 315.333 362.428C307.094 358.715 300.094 353.605 294.332 347.091C288.567 340.58 284.172 332.959 281.144 324.231C278.117 315.505 276.602 306.095 276.602 295.997C276.602 285.9 278.117 276.575 281.144 267.816C284.172 259.057 288.567 251.437 294.332 244.956C300.094 238.476 307.094 233.365 315.333 229.619C323.572 225.873 332.932 224 343.419 224ZM343.419 342.402C349.541 342.402 354.931 341.248 359.586 338.933C364.241 336.624 368.169 333.414 371.356 329.313C374.549 325.209 376.959 320.358 378.586 314.756C380.213 309.156 381.029 303.034 381.029 296.391V295.608C381.029 289.03 380.213 282.924 378.586 277.291C376.959 271.658 374.549 266.788 371.356 262.686C368.166 258.585 364.241 255.378 359.586 253.064C354.931 250.754 349.541 249.597 343.419 249.597C337.296 249.597 331.892 250.754 327.201 253.064C322.513 255.378 318.59 258.585 315.431 262.686C312.272 266.788 309.879 271.66 308.252 277.291C306.624 282.924 305.808 289.03 305.808 295.608V296.391C305.808 303.034 306.624 309.156 308.252 314.756C309.879 320.358 312.272 325.207 315.431 329.313C318.59 333.414 322.513 336.624 327.201 338.933C331.892 341.248 337.296 342.402 343.419 342.402Z" fill="white"/>
<path d="M460.184 366.043L420.619 225.956H452.369L479.431 331.265H480.407L506.882 225.956H538.239L498.674 366.043H460.186H460.184Z" fill="white"/>
<path d="M698.696 342.403C702.797 342.403 706.624 341.801 710.172 340.596C713.723 339.391 716.784 337.569 719.356 335.125C721.926 332.682 723.963 329.592 725.462 325.844C726.958 322.1 727.707 317.688 727.707 312.609V225.759H755.549V316.806C755.549 324.622 754.134 331.689 751.304 338.005C748.475 344.323 744.538 349.697 739.494 354.125C734.45 358.556 728.447 361.972 721.487 364.382C714.524 366.79 706.911 367.997 698.648 367.997C690.385 367.997 682.769 366.79 675.809 364.382C668.845 361.972 662.827 358.553 657.75 354.125C652.673 349.697 648.721 344.326 645.889 338.005C643.059 331.689 641.645 324.62 641.645 316.806V225.759H669.682V312.606C669.682 317.686 670.431 322.098 671.927 325.841C673.426 329.59 675.461 332.68 678.033 335.123C680.605 337.566 683.667 339.389 687.217 340.594C690.767 341.799 694.594 342.4 698.696 342.4V342.403Z" fill="white"/>
<path d="M780.677 225.954H809.008V286.618L859.025 225.954H893.901L845.251 281.636L897.027 366.04H864.108L827.082 303.224L809.008 323.446V366.04H780.677V225.954Z" fill="white"/>
</svg>
